<svg id="Слой_1" data-name="Слой 1" xmlns="http://www.w3.org/2000/svg" viewBox="0 0 300 150"><defs><style>.cls-1{fill:#fff;}.cls-2{fill:#e61651;}</style></defs><title>ivi</title><rect class="cls-1" width="300" height="150"/><polygon class="cls-2" points="98.93 99.82 98.93 78.11 80.11 88.98 98.93 99.82"/><polygon class="cls-2" points="78.32 113.8 97.12 102.96 78.32 92.09 78.32 113.8"/><polygon class="cls-2" points="110.73 66.09 121.6 84.9 132.45 66.09 110.73 66.09"/><polygon class="cls-2" points="146.46 86.69 135.6 67.89 124.74 86.69 146.46 86.69"/><polygon class="cls-2" points="124.71 90.31 135.56 109.12 146.41 90.31 124.71 90.31"/><polygon class="cls-2" points="138.66 110.95 160.38 110.95 149.51 92.13 138.66 110.95"/><polygon class="cls-2" points="78.36 85.84 78.36 85.87 97.15 75.01 97.13 75 97.14 74.99 78.34 64.14 78.34 85.85 78.36 85.84"/><polygon class="cls-2" points="78.36 57.91 78.36 57.93 97.15 47.07 97.13 47.07 97.14 47.05 78.34 36.2 78.34 57.92 78.36 57.91"/><polygon class="cls-2" points="201.12 85.84 201.12 85.87 219.92 75.01 219.9 75 219.92 74.99 201.1 64.14 201.1 85.85 201.12 85.84"/><polygon class="cls-2" points="201.12 57.91 201.12 57.93 219.92 47.07 219.9 47.07 219.92 47.05 201.1 36.2 201.1 57.92 201.12 57.91"/><polygon class="cls-2" points="177.49 84.9 188.34 66.09 166.63 66.09 177.49 84.9"/><polygon class="cls-2" points="163.49 67.89 152.62 86.69 174.35 86.69 163.49 67.89"/><polygon class="cls-2" points="163.53 109.12 174.37 90.31 152.67 90.31 163.53 109.12"/><polygon class="cls-2" points="202.88 88.98 221.68 99.82 221.68 78.11 202.88 88.98"/><polygon class="cls-2" points="201.09 113.8 219.89 102.96 201.09 92.09 201.09 113.8"/></svg>